<svg width="24" height="24" viewBox="0 0 24 24" fill="none" xmlns="http://www.w3.org/2000/svg">
<rect x="0.5" y="0.5" width="23" height="23" rx="11.5" fill="#F9A32C" stroke="white"/>
<g clip-path="url(#clip0_33_15)">
<path d="M9.804 6.42C10.6178 6.19875 11.4825 6 12 6C12.5175 6 13.3823 6.19875 14.196 6.42C15.0285 6.645 15.8678 6.91125 16.3613 7.0725C16.5676 7.14064 16.7505 7.2656 16.889 7.43303C17.0275 7.60045 17.116 7.80355 17.1443 8.019C17.5913 11.3767 16.554 13.8653 15.2955 15.5115C14.7618 16.2157 14.1255 16.8359 13.4078 17.3512C13.1596 17.5296 12.8966 17.6864 12.6218 17.82C12.4118 17.919 12.186 18 12 18C11.814 18 11.589 17.919 11.3783 17.82C11.1034 17.6864 10.8404 17.5296 10.5923 17.3512C9.87452 16.8359 9.23819 16.2157 8.7045 15.5115C7.446 13.8653 6.40875 11.3767 6.85575 8.019C6.88402 7.80355 6.97249 7.60045 7.11099 7.43303C7.2495 7.2656 7.43242 7.14064 7.63875 7.0725C8.35515 6.83761 9.07711 6.62004 9.804 6.42Z" fill="white"/>
</g>
<defs>
<clipPath id="clip0_33_15">
<rect width="12" height="12" fill="white" transform="translate(6 6)"/>
</clipPath>
</defs>
</svg>
